<svg xmlns="http://www.w3.org/2000/svg" xmlns:xlink="http://www.w3.org/1999/xlink" width="500" zoomAndPan="magnify" viewBox="0 0 375 374.999991" height="500" preserveAspectRatio="xMidYMid meet" version="1.0"><defs><clipPath id="c72eb174cd"><path d="M 157 129 L 228 129 L 228 193.316406 L 157 193.316406 Z M 157 129 " clip-rule="nonzero"/></clipPath><clipPath id="30a5b34e94"><path d="M 147 113.816406 L 218 113.816406 L 218 176 L 147 176 Z M 147 113.816406 " clip-rule="nonzero"/></clipPath><clipPath id="e2c152bd5c"><path d="M 181 113.816406 L 261.929688 113.816406 L 261.929688 192 L 181 192 Z M 181 113.816406 " clip-rule="nonzero"/></clipPath><clipPath id="dcd9707c93"><path d="M 113.429688 115 L 194 115 L 194 193.316406 L 113.429688 193.316406 Z M 113.429688 115 " clip-rule="nonzero"/></clipPath></defs><g clip-path="url(#c72eb174cd)"><path fill="#a9abae" d="M 221.28125 187.445312 L 215.605469 187.445312 L 157.203125 129.039062 L 157.203125 137.582031 L 207.0625 187.445312 L 213.105469 193.484375 L 227.324219 193.484375 L 227.324219 166.847656 L 221.28125 160.804688 Z M 221.28125 187.445312 " fill-opacity="1" fill-rule="nonzero"/></g><g clip-path="url(#30a5b34e94)"><path fill="#a9abae" d="M 153.714844 119.878906 L 162.023438 119.878906 L 217.40625 175.257812 L 217.40625 166.710938 L 164.53125 113.835938 L 147.671875 113.835938 L 147.671875 138.476562 L 153.714844 144.519531 Z M 153.714844 119.878906 " fill-opacity="1" fill-rule="nonzero"/></g><g clip-path="url(#e2c152bd5c)"><path fill="#7ed957" d="M 250.914062 186.367188 C 247.832031 186.367188 245.335938 183.871094 245.335938 180.792969 C 245.335938 179.851562 245.566406 178.96875 245.976562 178.195312 C 246.910156 176.421875 248.769531 175.214844 250.914062 175.214844 C 251.050781 175.214844 251.1875 175.21875 251.324219 175.230469 C 254.210938 175.441406 256.488281 177.851562 256.488281 180.792969 C 256.488281 183.871094 253.992188 186.367188 250.914062 186.367188 Z M 247.148438 170.824219 L 221.28125 144.953125 L 196.210938 119.878906 L 221.28125 119.878906 L 221.28125 139.640625 L 227.324219 145.679688 L 227.324219 113.835938 L 181.625 113.835938 L 187.667969 119.878906 L 221.28125 153.496094 L 242.300781 174.519531 C 241.019531 176.277344 240.257812 178.445312 240.257812 180.792969 C 240.257812 186.675781 245.03125 191.445312 250.914062 191.445312 C 256.796875 191.445312 261.566406 186.675781 261.566406 180.792969 C 261.566406 174.90625 256.796875 170.136719 250.914062 170.136719 C 249.585938 170.136719 248.320312 170.378906 247.148438 170.824219 Z M 247.148438 170.824219 " fill-opacity="1" fill-rule="evenodd"/></g><g clip-path="url(#dcd9707c93)"><path fill="#7ed957" d="M 124.082031 120.953125 C 127.164062 120.953125 129.660156 123.449219 129.660156 126.53125 C 129.660156 127.46875 129.425781 128.351562 129.019531 129.128906 C 128.085938 130.898438 126.226562 132.105469 124.082031 132.105469 C 123.945312 132.105469 123.808594 132.101562 123.671875 132.089844 C 120.785156 131.878906 118.507812 129.46875 118.507812 126.53125 C 118.507812 123.449219 121.003906 120.953125 124.082031 120.953125 Z M 127.847656 136.5 L 153.714844 162.367188 L 178.785156 187.445312 L 153.714844 187.445312 L 153.714844 167.679688 L 147.671875 161.644531 L 147.671875 193.484375 L 193.371094 193.484375 L 187.328125 187.445312 L 153.714844 153.824219 L 132.695312 132.800781 C 133.976562 131.042969 134.734375 128.875 134.734375 126.53125 C 134.734375 120.644531 129.964844 115.878906 124.082031 115.878906 C 118.199219 115.878906 113.429688 120.648438 113.429688 126.53125 C 113.429688 132.414062 118.199219 137.183594 124.082031 137.183594 C 125.40625 137.183594 126.675781 136.941406 127.847656 136.5 Z M 127.847656 136.5 " fill-opacity="1" fill-rule="evenodd"/></g></svg>